<!-- Generator: Adobe Illustrator 24.2.1, SVG Export Plug-In  -->
<svg version="1.1" xmlns="http://www.w3.org/2000/svg" xmlns:xlink="http://www.w3.org/1999/xlink" x="0px" y="0px"
	 width="1198.36px" height="708.2px" viewBox="0 0 1198.36 708.2"
	 style="overflow:visible;enable-background:new 0 0 1198.36 708.2;" xml:space="preserve">
<style type="text/css">
	.st0{fill:#FFFFFF;}
	.st1{fill:#F9B233;}
	.st2{stroke:#000000;stroke-width:10;stroke-miterlimit:10;}
</style>
<defs>
</defs>
<rect class="st0" width="1198.36" height="708.2"/>
<polygon class="st1" points="646.72,639.34 303.29,683.36 93.46,407.95 227.05,88.52 570.48,44.51 780.32,319.92 "/>
<g>
	<path d="M462.79,208.54l27.77,90.49h-12.71l-5.94-21h-33.29l-5.94,21h-12.02l27.63-90.49H462.79z M455.33,219.32l-13.82,48.21
		h27.49L455.33,219.32z"/>
	<path d="M550.86,213.45c5.29,4.38,7.94,10.62,7.94,18.72v3.32c0,8.66-2.58,15.33-7.74,20.03c-5.16,4.7-12.94,7.05-23.35,7.05
		c-4.14,0-8.57-0.37-13.26-1.1v37.58h-11.74v-91.46c7.83-0.46,15.79-0.69,23.9-0.69C537.48,206.88,545.56,209.07,550.86,213.45z
		 M514.46,217.11v34.26c5.53,0.74,9.76,1.11,12.71,1.11c13.26,0,19.89-5.85,19.89-17.55v-2.35c0-5.25-1.66-9.19-4.97-11.81
		c-3.32-2.62-8.57-3.94-15.75-3.94C522.28,216.83,518.33,216.92,514.46,217.11z"/>
	<path d="M585.05,208.54v90.49h-11.74v-90.49H585.05z"/>
	<path d="M646.18,207.92c4.19,0.69,6.65,1.08,7.39,1.17l-0.28,10.36c-8.11-1.47-14.37-2.21-18.79-2.21
		c-6.26,0-10.78,1.29-13.54,3.87c-2.76,2.58-4.14,6.86-4.14,12.85v39.51c0,5.99,1.36,10.25,4.08,12.78c2.72,2.53,7.25,3.8,13.61,3.8
		c4.42,0,10.68-0.74,18.79-2.21l0.28,10.64c-0.74,0.09-3.2,0.48-7.39,1.17c-4.19,0.69-8.08,1.04-11.67,1.04
		c-10.59,0-18.15-2.26-22.66-6.77c-4.51-4.51-6.77-11.56-6.77-21.14v-37.99c0-9.58,2.26-16.62,6.77-21.14
		c4.51-4.51,12.06-6.77,22.66-6.77C638.1,206.88,641.99,207.23,646.18,207.92z"/>
	<path d="M719.19,208.54v10.64h-35.92v28.6h33.16v10.5h-33.16v30.12h35.92v10.64h-47.66v-90.49H719.19z"/>
	<path d="M797.39,270.43c0,9.76-2.49,17.25-7.46,22.45c-4.97,5.2-12.3,7.81-21.97,7.81c-9.58,0-16.88-2.53-21.9-7.6
		c-5.02-5.06-7.53-12.52-7.53-22.38v-62.17h11.74v63.69c0,5.9,1.54,10.38,4.63,13.47c3.08,3.09,7.44,4.63,13.06,4.63
		c5.71,0,10.08-1.54,13.12-4.63c3.04-3.08,4.56-7.57,4.56-13.47v-63.69h11.74V270.43z"/>
	<path d="M876.13,208.54v10.64h-26.25v79.85h-11.74v-79.85h-26.25v-10.64H876.13z"/>
	<path d="M902.38,208.54v90.49h-11.74v-90.49H902.38z"/>
	<path d="M963.51,207.92c4.19,0.69,6.65,1.08,7.39,1.17l-0.28,10.36c-8.11-1.47-14.37-2.21-18.79-2.21
		c-6.26,0-10.78,1.29-13.54,3.87c-2.76,2.58-4.14,6.86-4.14,12.85v39.51c0,5.99,1.36,10.25,4.08,12.78c2.72,2.53,7.25,3.8,13.61,3.8
		c4.42,0,10.68-0.74,18.79-2.21l0.28,10.64c-0.74,0.09-3.2,0.48-7.39,1.17c-4.19,0.69-8.08,1.04-11.67,1.04
		c-10.59,0-18.15-2.26-22.66-6.77c-4.51-4.51-6.77-11.56-6.77-21.14v-37.99c0-9.58,2.26-16.62,6.77-21.14
		c4.51-4.51,12.06-6.77,22.66-6.77C955.43,206.88,959.32,207.23,963.51,207.92z"/>
	<path d="M1022.57,208.54l27.77,90.49h-12.71l-5.94-21h-33.29l-5.94,21h-12.02l27.63-90.49H1022.57z M1015.11,219.32l-13.82,48.21
		h27.49L1015.11,219.32z"/>
	<path d="M1074.24,208.54v80.13h35.92v10.36h-47.66v-90.49H1074.24z"/>
	<path d="M480.33,378.88c5.16,4.14,7.74,9.53,7.74,16.16c0,0.92-0.09,2.21-0.28,3.87l-0.41,2.76c-0.74,5.16-2.88,9.72-6.42,13.68
		c-3.55,3.96-8.04,6.82-13.47,8.57l18.93,40.89h-13.4c-4.33-10.68-7.67-18.7-10.02-24.04c-2.35-5.34-4.86-10.45-7.53-15.33
		c-4.7,0-9.58-0.37-14.64-1.11l-4.84,40.48h-11.74l11.19-91.46c8.57-0.46,16.35-0.69,23.35-0.69
		C467.99,372.67,475.17,374.74,480.33,378.88z M445.93,382.75l-4.01,32.6c4.88,0.55,8.93,0.83,12.16,0.83
		c12.71,0,19.94-5.2,21.69-15.61l0.14-0.83c0.18-1.66,0.28-2.85,0.28-3.59c0-4.42-1.54-7.81-4.63-10.15
		c-3.09-2.35-7.67-3.52-13.75-3.52L445.93,382.75z"/>
	<path d="M498.85,464.81l11.05-90.49h47.66l-1.38,10.64h-35.92l-3.45,28.6h33.16l-1.38,10.5h-33.16l-3.73,30.12h35.92l-1.1,10.64
		H498.85z"/>
	<path d="M613.85,424.33c2.53,3.5,3.8,7.83,3.8,12.99c0,1.66-0.14,3.55-0.41,5.66l-0.28,1.8c-1.1,7.28-3.94,12.71-8.5,16.3
		c-4.56,3.59-10.94,5.39-19.13,5.39c-3.96,0-8.29-0.58-12.99-1.73c-4.7-1.15-8.66-2.51-11.88-4.08l1.38-11.74
		c6.35,3.23,12.2,5.48,17.55,6.77c1.84,0.19,3.82,0.28,5.94,0.28c4.79,0,8.43-0.99,10.91-2.97c2.49-1.98,4.1-5.04,4.84-9.19
		l0.28-1.52c0.28-1.57,0.41-2.95,0.41-4.14c0-2.95-0.76-5.36-2.28-7.25c-1.52-1.89-3.98-3.52-7.39-4.9l-12.3-4.97
		c-4.88-1.93-8.61-4.79-11.19-8.57c-2.58-3.78-3.87-8.2-3.87-13.26c0-2.3,0.28-4.7,0.83-7.18l0.28-1.24
		c2.67-12.06,11.93-18.1,27.77-18.1c2.85,0,6.24,0.3,10.15,0.9c3.91,0.6,7.48,1.31,10.71,2.14l-1.52,11.19
		c-5.16-1.47-10.18-2.67-15.06-3.59c-1.38-0.09-2.99-0.14-4.83-0.14c-9.21,0-14.37,3.45-15.47,10.36l-0.28,1.66
		c-0.19,1.47-0.28,2.58-0.28,3.32c0,2.95,0.78,5.46,2.35,7.53c1.56,2.07,4.05,3.8,7.46,5.18l11.47,4.7
		C607.48,418.03,611.32,420.83,613.85,424.33z"/>
	<path d="M628.84,464.81l11.05-90.49h47.66l-1.38,10.64h-35.92l-3.45,28.6h33.16l-1.38,10.5h-33.16l-3.73,30.12h35.92l-1.1,10.64
		H628.84z"/>
	<path d="M756.5,464.81h-12.57c-0.55-4.33-1.57-11.33-3.04-21h-33.02c-3.13,8.01-6.08,15.01-8.84,21h-12.43l38.68-90.49h14.51
		L756.5,464.81z M712.29,433.31h26.94c-2.4-15.29-5.11-31.31-8.15-48.08C724.44,402.83,718.18,418.86,712.29,433.31z"/>
	<path d="M824.74,378.88c5.16,4.14,7.74,9.53,7.74,16.16c0,0.92-0.09,2.21-0.28,3.87l-0.41,2.76c-0.74,5.16-2.88,9.72-6.42,13.68
		c-3.55,3.96-8.04,6.82-13.47,8.57l18.93,40.89h-13.4c-4.33-10.68-7.67-18.7-10.02-24.04c-2.35-5.34-4.86-10.45-7.53-15.33
		c-4.7,0-9.58-0.37-14.64-1.11l-4.84,40.48h-11.74l11.19-91.46c8.57-0.46,16.35-0.69,23.35-0.69
		C812.4,372.67,819.58,374.74,824.74,378.88z M790.34,382.75l-4.01,32.6c4.88,0.55,8.93,0.83,12.16,0.83
		c12.71,0,19.94-5.2,21.69-15.61l0.14-0.83c0.18-1.66,0.28-2.85,0.28-3.59c0-4.42-1.54-7.81-4.63-10.15
		c-3.09-2.35-7.67-3.52-13.75-3.52L790.34,382.75z"/>
	<path d="M889.88,373.56c3.73,0.6,7.21,1.41,10.43,2.42l-1.52,11.05c-3.22-1.29-6.56-2.3-10.02-3.04c-3.45-0.74-6.56-1.11-9.33-1.11
		c-10.22,0-15.98,5.71-17.27,17.13l-4.56,37.99c-0.19,2.21-0.28,3.78-0.28,4.7c0,4.61,1.1,7.92,3.32,9.95
		c2.21,2.03,5.71,3.04,10.5,3.04c5.99,0,12.89-1.75,20.72-5.25l-1.11,11.05c-2.95,1.47-6.47,2.67-10.57,3.59
		c-4.1,0.92-7.72,1.38-10.85,1.38c-7.92,0-13.86-1.91-17.82-5.73c-3.96-3.82-5.94-9.69-5.94-17.61c0-2.12,0.14-4.42,0.41-6.91
		l4.28-35.37c1.2-9.58,4.24-16.67,9.12-21.27c4.88-4.6,11.65-6.91,20.31-6.91C882.76,372.67,886.15,372.97,889.88,373.56z"/>
	<path d="M956.68,464.81l4.97-41.45h-35.92l-4.97,41.45h-11.74l11.05-90.49h11.74l-4.84,38.54h35.92l4.84-38.54h11.74l-11.05,90.49
		H956.68z"/>
</g>
<line class="st2" x1="84.43" y1="534.43" x2="1113.93" y2="534.43"/>
</svg>
