<svg xmlns="http://www.w3.org/2000/svg" viewBox="0 0 4509.84 1867.45"><defs><style>.cls-1{fill:#fff;}.cls-2{fill:#1264fa;}</style></defs><g id="Layer_2" data-name="Layer 2"><g id="layers"><rect class="cls-1" width="4509.84" height="1867.45"/><path class="cls-2" d="M1316.52,1273.23v249.31h-46.3V1415.7H1141.29v106.84H1095V1273.23h46.3v102.93h128.93V1273.23Z"/><path class="cls-2" d="M1597.16,1273.23h46.3v249.31h-46.3Z"/><path class="cls-2" d="M2150.62,1273.23,2042,1522.54h-45.59l-109-249.31h50.22l83,192.33,83.69-192.33Z"/><path class="cls-2" d="M2577.64,1483.72v38.82h-187V1273.23h182v38.82H2437v64.82h120.38V1415H2437v68.74Z"/><path class="cls-2" d="M2824.1,1397.89c0-74.44,57-128.22,133.56-128.22,40.6,0,75.5,14.6,98.65,41.67l-29.92,28.14c-18.16-19.59-40.6-29.21-66.6-29.21-51.64,0-89,36.33-89,87.62s37.4,87.61,89,87.61c26,0,48.44-9.61,66.6-29.56l29.92,28.49c-23.15,27.07-58,41.67-99,41.67C2881.08,1526.1,2824.1,1472.32,2824.1,1397.89Z"/><path class="cls-2" d="M3536,1273.23v249.31h-46.3V1415.7H3360.81v106.84h-46.3V1273.23h46.3v102.93h128.93V1273.23Z"/><path class="cls-2" d="M3978.38,1464.84H3853.72l-24.57,57.7h-47.73l112.19-249.31h45.59l112.55,249.31h-48.44Zm-15.32-36.32-47-109-46.66,109Z"/><path class="cls-2" d="M4335.24,1312.41h-82.63v-39.18h211.56v39.18h-82.63v210.13h-46.3Z"/><path class="cls-2" d="M1061.49,603.34a78.86,78.86,0,0,0-39.27-68l-434-250.53a78.82,78.82,0,0,0-78.51,0L75.65,535.43a78.92,78.92,0,0,0-39.21,68v501.19a78.82,78.82,0,0,0,39.27,68l650.06,375.22a16.74,16.74,0,0,0,25.69-14.14V1328.91h0l270.86-156.39a78.87,78.87,0,0,0,39.21-68Z"/><path class="cls-1" d="M238.78,702.31a47.69,47.69,0,0,1,23.75-41.13L525.21,509.52a47.78,47.78,0,0,1,47.53,0L835.46,661.19a47.76,47.76,0,0,1,23.73,41.16v303.36a47.76,47.76,0,0,1-23.75,41.13L442,1273.93a10.1,10.1,0,0,1-15.52-8.56v-123.9h0l-163.95-94.65a47.69,47.69,0,0,1-17.32-17.4,48.27,48.27,0,0,1-6.43-23.77Z"/><path class="cls-2" d="M397.88,811.08a43.17,43.17,0,1,0,43.26,43.06A43,43,0,0,0,397.88,811.08Z"/><path class="cls-2" d="M700.15,897.41a43.17,43.17,0,1,0-43.3-43.27A43.27,43.27,0,0,0,700.15,897.41Z"/><path class="cls-2" d="M506,854.14a43.15,43.15,0,1,0,42.79-43.06A43,43,0,0,0,506,854.14Z"/></g></g></svg>