<?xml version="1.0" encoding="utf-8"?>
<!-- Generator: Adobe Illustrator 19.2.0, SVG Export Plug-In . SVG Version: 6.00 Build 0)  -->
<svg version="1.1" id="Layer_1" xmlns="http://www.w3.org/2000/svg" xmlns:xlink="http://www.w3.org/1999/xlink" x="0px" y="0px"
	 viewBox="0 0 466.7 166" style="enable-background:new 0 0 466.7 166;" xml:space="preserve">
<g>
	<path d="M25.9,23.8c0.7-1.9,1.8-3.3,2.8-4.9c4.2-3.5,14.8-6,17.6-1.1c2.5,8.8-8.4,14.6-16.8,12.4c-0.7,2.8,4,3.3,7.5,3.5
		c12.8,0.5,21.3-18.1,9.6-21.3c-11-1.6-20.8,3.3-25.9,11.2c-4.9,14.2,5.3,18.3,7.2,27.9c0,1.7-0.8,3-1.4,4.9
		c-2.9,5.4-17.4,7.2-15-1.4c1.1-2.3,3.1-3.4,6-3.4c2.9,0.3,1.4,4.2,3.6,5.2c1.5-0.5,2.3-1.8,2.6-3.7c-1.4-7.8-18.8-4.6-18,5.7
		c4,10.1,26.1,5,27.4-8.6C33.5,39,23.4,36.5,25.9,23.8z"/>
	<path d="M298.8,56.8c3.1,0,5.9-2.8,6-6c0-3.4-2.6-6.2-5.6-6.2c-3,0-5.6,2.8-5.6,6.2c-0.1,1.7,0.5,3.4,1.6,4.5
		C296.2,56.3,297.5,56.8,298.8,56.8z"/>
	<path d="M401.7,65.1c0.5,0,1.1-0.1,1.7-0.3l0.1-0.1c2-1.3,5.6-4,8.9-7.5c4.8-5.2,6.9-8.9,7-12.1c0.1-1.4-0.4-2.6-1.2-3.6
		c-1-1-2.4-1.6-4-1.6c-4,0-7,3.6-7,6.8c-0.2,1.8,0.9,3.3,2.9,4.2c-1.7,4.6-6.8,9.4-8.4,10.8l-0.1,0.1c-1.4,0.8-2,1.6-1.8,2.3
		C400,64.7,400.7,65.1,401.7,65.1z"/>
	<path d="M458.8,94.5c-7.5,8.7-17,10.3-20.1,10c1.6-10.3-6.9-22.9-6.7-26.3c0.3-9.5,14.9-3.8,15.8-7.7c1.3-4.9-5.1-6.7-9.1-6
		C426.6,66.7,416.5,88,407,97.1c-1-1-3.1-2.6-4.4-2.6c-3.1,0-4.2,2.9-4.2,5.7c-0.3,12.4,13.2,19.6,22.7,19.6c6.7,0,14.5-3.3,17-10.9
		c2,0.2,7.5-0.7,12.4-3.4c4.1-2.1,7.8-6.4,10-9.1C461.9,94.7,460.2,92.7,458.8,94.5z M420.4,115.1c-7.8,0.2-13.9-3.4-13.7-13.1
		c6.5,4.4,16,6,23.7,6.2C427.7,112.9,423.8,115.1,420.4,115.1z M430.5,104.3c-7.2-0.5-14.2-2.8-20.7-5.5c5.6-6,10.4-12.1,15.3-18.8
		c0.8,6.9,5.6,18.1,5.4,23.8V104.3z"/>
	<path d="M392.3,95.9c-3.5-0.7-7-0.9-10.5-0.7c2.4-8.4,8.9-31.4,9.1-37.5c0-0.5-0.1-1-0.5-1.4c-1-1.1-3.1-1.3-3.9-1.3
		c-1.7,0-4.1,0.3-4.8,3.2c-7.2,17.4-18.6,30-22.7,30c-0.4,0-0.6-0.1-0.8-0.3c-0.5-0.5-0.5-1.8-0.5-2.9l0-0.3
		c0.1-3.7,3.7-8.9,6.3-12.7c1.8-2.6,2.7-4,2.7-4.8c0-1.9-2.3-2.7-3.9-2.7c-5.2,0-9.9,6.7-12.4,13.2c-5.6,6.1-15.5,16.2-25,16.2
		c-2,0-3.5-0.5-4.5-1.6c-1.4-1.4-2-3.8-1.9-7.4c0-1,0.1-1.9,0.3-2.9c0.1-0.5,0.1-1,0.2-1.6c12.2-10.1,56.4-50.4,56.9-68.2
		c0.1-1.8-0.7-3.8-2.1-5.3c-1.4-1.5-3.3-2.3-5-2.3c-8.9,0-22.7,11.7-36.8,31.3c-12,16.7-20.6,34.1-22.2,44.5
		c-3.2,3.5-6.9,7.3-9.3,9.2c-3.7,2.7-7.6,5.3-10.8,5.6c-0.3,0-0.5,0-0.8,0c-1.5,0-2.6-0.4-3.3-1.2c-1.1-1.3-1.4-3.6-0.9-6.8
		c1-5.7,4.5-10.7,7.1-14.3c1.6-2.2,2.7-3.8,2.8-5c0-3-2.7-4.8-5.1-4.8c-3.9,0-8.1,8.1-10.8,15.2c-4.4,4.6-14.1,14.3-24.4,14.3
		c-2.4,0-4.2-0.7-5.5-1.9c-1.5-1.6-2.3-4.1-2.2-7.5c0.3-8.5,7.9-19.8,15.2-19.8c0.9,0,2,0.1,2.6,0.7c0.3,0.4,0.5,0.9,0.4,1.6
		c0,0.6-0.3,1.3-0.5,2c-0.3,0.7-0.6,1.5-0.7,2.5c0,1.4,0.8,2.5,1.9,2.5c3.4,0,7.4-6.6,7.6-9.4c0.1-1.5-0.3-2.6-1.2-3.5
		c-1.1-1.2-3-1.8-5.6-1.8c-9.4,0-24,10.5-28.5,21.1c-0.7,0.8-1.5,1.7-2.5,2.7l-0.1,0.1c-5,5.3-11.2,11.9-19.5,11.9
		c-2,0-3.7-0.6-4.8-1.8c-1.4-1.5-2.2-3.9-2.1-6.8c0-1.2,0.3-2.3,0.5-3.5C216.7,79,231.9,69.1,232,61c0.1-1.7-0.4-3.2-1.4-4.2
		c-1-1-2.4-1.6-4-1.6c-10.4,0-23.3,13.1-26.1,25.2c-2.2,1.7-4.2,3.1-5.2,3.7c-15.3,9.5-31.5,14.1-49.5,14.1
		c-6.2,0-11.8-2.1-15.4-5.9c-3.2-3.3-4.7-7.7-4.6-13c0.9-24.1,46.1-61.2,84-61.2c6.3,0,11,2,12.7,5.3c1.5,3,0.6,7-2.7,11.6
		c-6.2,8.7-19.1,13.9-27.9,13.9c-3.9,0-6.5-0.7-7.9-2.2c-1-1.1-1.5-2.6-1.4-4.7c0-0.4,0.1-0.9,0.2-1.4c0.2-1.2,0.4-2.6-0.3-3.4
		c-0.4-0.5-1.1-0.8-2.1-0.8c-2,0-3.3,4.6-3.4,7.1c-0.1,2.7,0.6,5,2.2,6.6c2.2,2.3,6,3.4,11.3,3.4c13.4,0,38.8-10,39.5-29.1
		c0.1-3.5-0.9-6.3-3-8.4c-3.3-3.4-9-5-17.5-5c-15.2,0-31.3,4.5-46.5,13c-9.7,5.2-23.2,14.3-33.6,25.7c-5,5.3-9.2,8-12.5,8
		c-0.7,0-1.2-0.2-1.6-0.6c-0.5-0.5-0.7-1.5-0.7-2.8c0.1-3.2,2.7-8.6,4.5-11.7c9.1,0,9.1-1.3,9.1-1.8c-0.1-1-1-1.4-2.6-1.4
		c-0.2,0-0.4,0-0.6,0l-0.3,0c-0.5,0-1,0-1.5,0c-0.7,0-1.5,0-2.2,0c2.4-3.4,4.9-6.3,8.1-9.6c0.1-0.1,0.2-0.2,0.3-0.3
		c0.5-0.5,1.1-1.1,0.8-2.1c-0.3-1.3-1.9-1.3-2.5-1.3c-5.4,0-10.1,8.5-12.6,13.2l-5-0.3c-0.1,0-0.2,0-0.3,0c-1.1,0-1.8,0.6-1.8,1.5
		c0,0.8,0.2,1.4,0.6,1.8c0.8,0.8,2.3,1,4.4,0.7c-1.1,2-2.2,4.6-2.9,7.1c-0.4,0.5-0.9,1-1.5,1.7c-2.5,2.7-5.7,6-9.9,6
		c-1,0-1.7-0.3-2.3-0.9c-0.7-0.7-1-1.9-1-3.3c0-0.6,0.1-1.1,0.2-1.6c3.3-1.3,11.3-6.3,11.4-10.8c0-0.9-0.2-1.8-0.8-2.3
		c-0.5-0.6-1.3-0.9-2.3-0.9c-5.4,0-12.1,6.7-13.6,13c-0.2,0.2-0.4,0.4-0.6,0.7c-2.5,2.7-5.7,6-9.9,6c-1,0-1.8-0.3-2.3-0.9
		c-0.7-0.7-1-1.9-1-3.3c0-0.6,0.1-1.1,0.2-1.6c3.3-1.3,11.3-6.3,11.4-10.8c0-0.9-0.2-1.8-0.8-2.3c-0.5-0.6-1.3-0.9-2.3-0.9
		c-5.4,0-12.1,6.7-13.6,13c-1.3,1.3-2.5,1.9-4.3,1.9c-1.4,0-1.9-1.8-2.3-3.9c0.4-1,0.8-2,0.8-3.1c0.1-1.5-0.5-3.1-1.5-4.1
		c-0.7-0.7-1.6-1.1-2.5-1.1c-1.3,0-2.2,0.8-2.2,2.1c-0.1,0.9,0.7,3.8,1.5,6.9l0.1,0.4c-1.2,3-3.8,7.6-6.1,7.6
		c-0.5,0-0.9-0.1-1.2-0.4c-0.3-0.3-0.4-0.8-0.4-1.5c0.2-4.2,2.8-8.1,3.6-9.2l0.1-0.1l0-0.1c0-0.6-0.1-1.1-0.5-1.5
		c-0.4-0.4-1-0.7-1.8-0.7c-0.6,0-1.1,0.1-1.7,0.4l-0.1,0.1l-0.1,0.1c-0.5,0.7-1.1,1.6-1.7,2.5C49.2,51.4,45.5,57,40,59.2
		c-0.5,0.2-0.8,0.2-0.9,0.2c-0.2,0-0.3-0.1-0.3-0.1c-0.4-0.7,0.6-3,1.4-4.5c2.2-4.6,6.7-9.1,8.2-10.6c0.3-0.2,0.4-0.5,0.6-0.7
		l0.2-0.3v-0.2c0-1.1-1-1.5-2-1.5c-6.2,0-12.6,12.2-12.8,17.8c0,2.3,1.2,3.7,3.2,3.7c3.2,0,8.2-4.4,12.1-8.5
		c0.1,2.2,0.6,3.8,1.5,4.8c0.9,0.9,2,1.3,3.7,1.3c3.5,0,6.6-3.5,8.2-7c1.2,1.6,2.8,2.5,4.6,2.5c1.4,0,2.8-0.6,4-1.5
		c0.2,1.7,0.8,3.1,1.8,4.2c1.4,1.5,3.6,2.2,6.2,2.2c3.3,0,6.9-2.1,10.8-6.1c0.2,1.6,0.8,2.9,1.8,3.9c1.4,1.5,3.6,2.2,6.2,2.2
		c3.5,0,7.3-2.2,11.3-6.7c0,2.2,0.5,3.9,1.6,5c1,1,2.5,1.6,4.3,1.6c2.4,0,4.6-0.8,6.8-2.1c-5,7.3-8.3,15.2-8.5,23.3
		c-0.2,5.6,1.5,10.3,4.9,13.9c7.1,7.3,19.8,8.1,24.9,8.1c14.9,0,39.9-6.8,56.3-18.1c0.2,3.4,1.4,6.2,3.4,8.3
		c2.7,2.8,6.8,4.2,11.8,4.2c6.7,0,14-4.4,21.8-13c0,4.2,1.1,7.5,3.2,9.7c2.2,2.2,5.4,3.4,9.6,3.4c10,0,19.7-6.4,27.1-13.1
		c-0.2,0.7-0.3,1.3-0.4,1.7c-0.6,4,0.1,7.2,2.1,9.5c1.9,2.2,5,3.4,8.9,3.4c6,0,11.1-3.8,16.3-8c0.9-0.8,3.7-3.5,6.5-6.5
		c0.3,4.5,1.7,8.2,4,10.6c2.2,2.3,5.1,3.4,8.7,3.4c10,0,19.2-7.7,25.3-14.2c0.1-0.2,0.3-0.4,0.5-0.6c0,0.2,0,0.4,0,0.6
		c-0.1,3.8,0.7,6.7,2.3,8.3c1.1,1.1,2.6,1.7,4.4,1.7c7.9,0,18.1-14,23.1-23c-1.4,7-3.7,16.6-5.6,23c-19.7,3.1-68.7,21.9-69.7,48.5
		c-0.1,4.7,1.3,8.5,4.2,11.6c3.5,3.6,9.1,5.7,15.3,5.7c28.1,0,48.4-31.9,58-61.7l0.1-0.3c3.5,0,7,0.3,10.4,1.2c0,0,0.1,0,0.1,0
		c1.4,0.3,2.7-0.6,2.9-2C394.6,97.4,393.7,96.1,392.3,95.9z M332.8,48.8c9-14.6,26.2-39.3,34.2-39.3c0.3,0,0.9,0,0.9,1.6
		c-0.6,14.3-31.9,51.2-47.3,63.2C323.1,66.7,327.2,58.3,332.8,48.8z M216.3,68.2c1.7-2.3,4.7-6,6.3-6.8c0.7-0.3,1.3-0.5,1.9-0.5
		c0.5,0,0.8,0.1,1,0.4c0.2,0.3,0.5,1.3-0.7,4c-0.8,1.8-3.5,4.7-5.7,6.7c-2.5,2.1-6,4.3-8.1,5.2C212,74.6,213.6,71.5,216.3,68.2z
		 M99.2,45.2c0.8-1.1,2.4-3,3.1-3.4c0.3-0.2,0.6-0.2,0.8-0.2c0.2,0,0.3,0.1,0.3,0.1c0,0.1,0.2,0.5-0.4,1.8c-0.4,0.9-1.7,2.3-2.9,3.4
		c-1.1,0.9-2.5,1.8-3.5,2.4C97.3,48.1,98,46.7,99.2,45.2z M80.4,45.2c0.8-1.1,2.4-3,3.1-3.4c0.3-0.2,0.6-0.2,0.8-0.2
		s0.3,0.1,0.3,0.1c0,0.1,0.2,0.5-0.4,1.8c-0.4,0.9-1.7,2.3-2.9,3.4c-1.1,0.9-2.5,1.8-3.5,2.4C78.5,48.1,79.2,46.7,80.4,45.2z
		 M324.4,157.3c-4.3,0-8.5-1.7-11.1-4.3c-1.9-1.9-2.8-4.3-2.7-7l0.2-2.5c0.7-21.6,43.5-39.9,61.8-43.1
		C365.1,128,347,157.3,324.4,157.3z"/>
</g>
</svg>
